<?xml version="1.0" encoding="UTF-8"?>
<svg width="153px" height="174px" viewBox="0 0 153 174" version="1.1" xmlns="http://www.w3.org/2000/svg" xmlns:xlink="http://www.w3.org/1999/xlink">
    <!-- Generator: Sketch 53.1 (72631) - https://sketchapp.com -->
    <title>icon#revenue</title>
    <desc>Created with Sketch.</desc>
    <g id="Cards" stroke="none" stroke-width="1" fill="none" fill-rule="evenodd">
        <g id="Header-#1" transform="translate(-122.000000, -2701.000000)">
            <g id="icon#revenue" transform="translate(123.000000, 2702.000000)">
                <path d="M85.6874016,0 C38.3629699,0 0,38.5029228 0,86 C0,133.497077 38.3629699,172 85.6874016,172 C111.854112,172 135.282716,160.228177 151,141.671661" id="Stroke-1" stroke="#E1A300" stroke-width="2"></path>
                <path d="M81.6443295,89.4228095 C81.6443295,91.5726018 83.2044659,93.0975777 86.3288659,93.993501 L86.3288659,85.0194418 C83.2044659,85.8327623 81.6443295,87.2941974 81.6443295,89.4228095 L81.6443295,89.4228095 Z M71.1051545,49.1168512 L103.894845,49.1168512 L114.634197,24.3910625 C115.816681,20.3435225 112.066988,19.8712036 108.725903,22.0315861 L103.748325,25.877914 C100.407239,28.0361784 96.0136805,25.7275344 93.8757159,22.1819656 L91.9544369,18.9964606 C89.818536,15.4508918 85.8377119,14.9849269 83.0641362,17.9565118 L79.3474621,21.9383931 C76.5738864,24.912096 72.5579799,26.0939522 68.9300438,24.5816845 L63.618151,22.3662335 C59.9902149,20.8539658 58.1989473,22.8343164 59.6125629,26.7928995 L71.1051545,49.1168512 Z M73.4474227,51.6817758 C72.1535001,51.6817758 71.1051545,52.8297437 71.1051545,54.2467004 C71.1051545,55.6636571 72.1535001,56.811625 73.4474227,56.811625 L101.552577,56.811625 C102.8465,56.811625 103.894845,55.6636571 103.894845,54.2467004 C103.894845,52.8297437 102.8465,51.6817758 101.552577,51.6817758 L73.4474227,51.6817758 Z M91.0134023,104.251081 L91.0134023,114.508662 C92.9243629,114.205785 94.3936977,113.561906 95.3739421,112.553728 C96.3541865,111.547667 96.8680409,110.478066 96.8680409,109.351278 C96.8680409,107.012982 94.9075521,105.320683 91.0134023,104.251081 L91.0134023,104.251081 Z M103.560531,59.3744316 L71.4394695,59.3744316 C56.6759571,71.356082 43,88.7619867 43,108.73917 C43,136.711886 62.9226934,144 87.4989682,144 C112.077307,144 132,136.711886 132,108.73917 C132,88.7619867 118.324043,71.356082 103.560531,59.3744316 L103.560531,59.3744316 Z M99.9057667,117.173134 C97.736847,119.70417 94.7713497,121.119009 91.0134023,121.4706 L91.0134023,127.331167 L86.3288659,127.331167 L86.3288659,121.580737 C79.2772973,120.606447 75.1953533,116.378875 74.0685881,108.878959 L82.7793494,107.938558 C83.1508104,110.757645 84.3394857,112.771884 86.3288659,113.945268 L86.3288659,102.982386 C82.4182067,101.796294 79.6343126,100.222604 77.9668653,98.2210728 C76.2106801,96.1390572 75.3501287,93.51271 75.3501287,90.3081427 C75.3501287,87.0823952 76.2829086,84.358619 78.1856146,82.1346959 C80.0057736,80.025146 82.7153755,78.7204444 86.3288659,78.2608337 L86.3288659,73.47834 L91.0134023,73.47834 L91.0134023,78.2417715 C97.1817191,79.0042594 100.87982,82.4015667 102.13866,88.4252212 L93.8674612,89.7278047 C93.3412248,87.6076647 92.3898718,86.1610557 91.0134023,85.4028038 L91.0134023,95.0652201 C95.3966425,96.2979089 98.5231062,97.9732643 100.380411,100.04469 C102.285181,102.169066 103.253043,104.892842 103.253043,108.199074 C103.253043,111.604854 102.13866,114.589147 99.9057667,117.173134 L99.9057667,117.173134 Z" id="Fill-3" fill="#E1A300"></path>
            </g>
        </g>
    </g>
</svg>