<?xml version="1.0" encoding="UTF-8"?>
<svg width="22px" height="24px" viewBox="0 0 22 24" version="1.1" xmlns="http://www.w3.org/2000/svg" xmlns:xlink="http://www.w3.org/1999/xlink">
    <!-- Generator: Sketch 53.1 (72631) - https://sketchapp.com -->
    <title>Group 6</title>
    <desc>Created with Sketch.</desc>
    <g id="Cards" stroke="none" stroke-width="1" fill="none" fill-rule="evenodd">
        <g id="Header-#1" transform="translate(-115.000000, -2102.000000)" fill="#3B91BF">
            <g id="Group-6" transform="translate(115.000000, 2102.000000)">
                <path d="M20.2954,9.0819 C20.8464,10.3639 21.1264,11.7249 21.1264,13.1279 C21.1264,14.5309 20.8464,15.8919 20.2954,17.1739 C19.7634,18.4119 19.0014,19.5229 18.0324,20.4769 C17.0624,21.4319 15.9324,22.1809 14.6744,22.7039 C13.3724,23.2469 11.9884,23.5219 10.5634,23.5219 C9.1374,23.5219 7.7534,23.2469 6.4514,22.7039 C5.1934,22.1809 4.0634,21.4319 3.0934,20.4769 C2.1244,19.5229 1.3624,18.4119 0.8304,17.1739 C0.2794,15.8919 0.0004,14.5309 0.0004,13.1279 C0.0004,11.7249 0.2794,10.3639 0.8304,9.0819 C1.3624,7.8439 2.1244,6.7329 3.0934,5.7789 C4.0634,4.8239 5.1934,4.0749 6.4514,3.5509 C7.4054,3.1539 8.4024,2.9009 9.4284,2.7929 L9.4284,2.1129 L8.6474,2.1129 C8.3334,2.1129 8.0784,1.8619 8.0784,1.5529 L8.0784,0.5599 C8.0784,0.2509 8.3334,-9.99999998e-05 8.6474,-9.99999998e-05 L12.4784,-9.99999998e-05 C12.7924,-9.99999998e-05 13.0474,0.2509 13.0474,0.5599 L13.0474,1.5529 C13.0474,1.8619 12.7924,2.1129 12.4784,2.1129 L11.6974,2.1129 L11.6974,2.7929 C12.7234,2.9009 13.7204,3.1539 14.6744,3.5509 C15.9324,4.0749 17.0624,4.8239 18.0324,5.7789 C19.0014,6.7329 19.7634,7.8439 20.2954,9.0819 Z M10.5634,21.6709 C15.3504,21.6709 19.2444,17.8379 19.2444,13.1279 C19.2444,8.4169 15.3504,4.5849 10.5634,4.5849 C5.7754,4.5849 1.8814,8.4169 1.8814,13.1279 C1.8814,17.8379 5.7754,21.6709 10.5634,21.6709 Z M10.902,5.7473 L10.876,12.9153 L17.686,15.4563 C16.259,19.1573 12.054,21.0183 8.293,19.6153 C4.533,18.2113 2.641,14.0743 4.067,10.3733 C5.174,7.5023 7.955,5.7373 10.902,5.7473 Z" id="icon#punctuality"></path>
            </g>
        </g>
    </g>
</svg>