<?xml version="1.0" encoding="UTF-8"?>
<svg width="22px" height="22px" viewBox="0 0 22 22" version="1.1" xmlns="http://www.w3.org/2000/svg" xmlns:xlink="http://www.w3.org/1999/xlink">
    <!-- Generator: Sketch 53.1 (72631) - https://sketchapp.com -->
    <title>icon#minimum</title>
    <desc>Created with Sketch.</desc>
    <g id="Cards" stroke="none" stroke-width="1" fill="none" fill-rule="evenodd">
        <g id="Header-#1" transform="translate(-115.000000, -1733.000000)" fill="#3B91BF">
            <path d="M116.902111,1744.95111 C117.409629,1748.93921 120.502765,1752.10894 124.400979,1752.64083 C124.380689,1752.5707 124.3698,1752.49644 124.3698,1752.4196 C124.3698,1751.9896 124.7108,1751.6416 125.1318,1751.6416 L125.9948,1751.6416 C126.4158,1751.6416 126.7568,1751.9896 126.7568,1752.4196 C126.7568,1752.49641 126.745919,1752.57064 126.725646,1752.64075 C130.623532,1752.1086 133.716346,1748.93905 134.223877,1744.95121 C134.166631,1744.96526 134.106868,1744.9727 134.0454,1744.9727 C133.6244,1744.9727 133.2834,1744.6237 133.2834,1744.1937 L133.2834,1743.3117 C133.2834,1742.8817 133.6244,1742.5327 134.0454,1742.5327 C134.102887,1742.5327 134.158882,1742.53921 134.212722,1742.55154 C133.673482,1738.61091 130.606445,1735.48629 126.745426,1734.94997 C126.752902,1734.99368 126.7568,1735.03863 126.7568,1735.0845 C126.7568,1735.5145 126.4158,1735.8635 125.9948,1735.8635 L125.1318,1735.8635 C124.7108,1735.8635 124.3698,1735.5145 124.3698,1735.0845 C124.3698,1735.0386 124.373703,1734.99362 124.381189,1734.94989 C120.51985,1735.48597 117.452497,1738.61075 116.913265,1742.55163 C116.967231,1742.53924 117.023366,1742.5327 117.081,1742.5327 C117.502,1742.5327 117.843,1742.8817 117.843,1743.3117 L117.843,1744.1937 C117.843,1744.6237 117.502,1744.9727 117.081,1744.9727 C117.019384,1744.9727 116.959481,1744.96522 116.902111,1744.95111 Z M126.503208,1746.43668 C126.42163,1746.82926 126.0785,1747.1261 125.6716,1747.1261 L121.4346,1747.1261 C120.9666,1747.1261 120.5836,1746.7351 120.5836,1746.2571 C120.5836,1745.7791 120.9666,1745.3881 121.4346,1745.3881 L124.8677,1745.3881 L124.8677,1738.366 C124.8677,1737.893 125.2467,1737.507 125.7087,1737.507 C126.1707,1737.507 126.5497,1737.893 126.5497,1738.366 L126.5497,1746.156 C126.5497,1746.25414 126.533316,1746.3486 126.503208,1746.43668 Z M125.563,1754.5875 C119.739,1754.5875 115,1749.7455 115,1743.7935 C115,1737.8425 119.739,1733.0005 125.563,1733.0005 C131.387,1733.0005 136.126,1737.8425 136.126,1743.7935 C136.126,1749.7455 131.387,1754.5875 125.563,1754.5875 Z" id="icon#minimum"></path>
        </g>
    </g>
</svg>