<?xml version="1.0" encoding="UTF-8"?>
<svg width="313px" height="29px" viewBox="0 0 313 29" version="1.1" xmlns="http://www.w3.org/2000/svg" xmlns:xlink="http://www.w3.org/1999/xlink">
    <!-- Generator: Sketch 53.1 (72631) - https://sketchapp.com -->
    <title>Group 73</title>
    <desc>Created with Sketch.</desc>
    <defs>
        <polygon id="path-1" points="0 29 312.719 29 312.719 0.581 0 0.581"></polygon>
    </defs>
    <g id="Cards" stroke="none" stroke-width="1" fill="none" fill-rule="evenodd">
        <g id="Header-#1" transform="translate(-528.000000, -4619.000000)">
            <g id="Group-73" transform="translate(528.000000, 4618.000000)">
                <polygon id="Fill-1" fill="#FFFFFF" points="111.467 20.4563 109.387 20.4563 109.387 19.3143 115.003 19.3143 115.003 20.4563 112.921 20.4563 112.921 26.5743 111.467 26.5743"></polygon>
                <path d="M114.0891,26.5745 L115.5991,26.5745 L116.2341,24.9075 L119.1771,24.9075 L119.8021,26.5745 L121.4131,26.5745 L118.5621,19.3145 L116.9181,19.3145 L114.0891,26.5745 Z M118.7711,23.7665 L116.6481,23.7665 L117.6971,20.7705 L117.7201,20.7705 L118.7711,23.7665 Z" id="Fill-2" fill="#FFFFFF"></path>
                <polygon id="Fill-3" fill="#FFFFFF" points="121.963 26.5743 123.419 26.5743 123.419 19.3143 121.963 19.3143"></polygon>
                <g id="Group-72" transform="translate(0.000000, 0.419300)">
                    <path d="M124.595,26.1552 L126.052,26.1552 L126.052,23.3972 L126.667,23.3972 C128.227,23.3972 129.465,22.7842 129.465,21.0882 C129.465,19.3512 128.019,18.8952 126.436,18.8952 L124.595,18.8952 L124.595,26.1552 Z M126.052,20.0372 L126.562,20.0372 C127.311,20.0372 127.945,20.3292 127.945,21.1732 C127.945,22.0132 127.29,22.2542 126.562,22.2542 L126.052,22.2542 L126.052,20.0372 Z" id="Fill-4" fill="#FFFFFF"></path>
                    <polygon id="Fill-6" fill="#FFFFFF" points="130.2434 18.8954 134.5304 18.8954 134.5304 20.0374 131.7004 20.0374 131.7004 21.8294 134.2904 21.8294 134.2904 22.9724 131.7004 22.9724 131.7004 25.0094 134.5504 25.0094 134.5504 26.1554 130.2434 26.1554"></polygon>
                    <mask id="mask-2" fill="white">
                        <use xlink:href="#path-1"></use>
                    </mask>
                    <g id="Clip-9"></g>
                    <polygon id="Fill-8" fill="#FFFFFF" mask="url(#mask-2)" points="135.642 26.155 137.1 26.155 137.1 18.895 135.642 18.895"></polygon>
                    <path d="M142.0413,26.1552 L143.4963,26.1552 L143.4963,23.1372 L143.9643,23.1372 C144.5773,23.1372 144.7653,23.3472 144.9743,23.8882 L145.8473,26.1552 L147.4703,26.1552 L146.3073,23.3162 C146.1593,22.9922 145.9303,22.5972 145.5343,22.5662 L145.5343,22.5462 C146.4613,22.4192 147.0343,21.7142 147.0343,20.8592 C147.0343,18.8402 145.1713,18.8952 143.6103,18.8952 L142.0413,18.8952 L142.0413,26.1552 Z M143.4963,20.0372 L143.9773,20.0372 C144.7043,20.0372 145.5153,20.1092 145.5153,20.9852 C145.5153,21.8882 144.6933,21.9952 143.9773,21.9952 L143.4963,21.9952 L143.4963,20.0372 Z" id="Fill-10" fill="#FFFFFF" mask="url(#mask-2)"></path>
                    <path d="M147.512,26.1552 L149.021,26.1552 L149.654,24.4882 L152.599,24.4882 L153.226,26.1552 L154.835,26.1552 L151.985,18.8952 L150.342,18.8952 L147.512,26.1552 Z M152.194,23.3472 L150.072,23.3472 L151.121,20.3512 L151.142,20.3512 L152.194,23.3472 Z" id="Fill-11" fill="#FFFFFF" mask="url(#mask-2)"></path>
                    <path d="M155.3879,26.1552 L156.8429,26.1552 L156.8429,23.3972 L157.4579,23.3972 C159.0159,23.3972 160.2529,22.7842 160.2529,21.0882 C160.2529,19.3512 158.8089,18.8952 157.2299,18.8952 L155.3879,18.8952 L155.3879,26.1552 Z M156.8429,20.0372 L157.3539,20.0372 C158.1019,20.0372 158.7359,20.3292 158.7359,21.1732 C158.7359,22.0132 158.0819,22.2542 157.3539,22.2542 L156.8429,22.2542 L156.8429,20.0372 Z" id="Fill-12" fill="#FFFFFF" mask="url(#mask-2)"></path>
                    <polygon id="Fill-13" fill="#FFFFFF" mask="url(#mask-2)" points="160.913 26.155 162.369 26.155 162.369 18.895 160.913 18.895"></polygon>
                    <path d="M163.6672,26.1552 L165.6532,26.1552 C167.8812,26.1552 169.8472,25.4062 169.8472,22.5242 C169.8472,19.6412 167.8812,18.8952 165.6532,18.8952 L163.6672,18.8952 L163.6672,26.1552 Z M165.1222,20.0372 L165.9362,20.0372 C167.1512,20.0372 168.3282,20.9422 168.3282,22.5242 C168.3282,24.1032 167.1512,25.0092 165.9362,25.0092 L165.1222,25.0092 L165.1222,20.0372 Z" id="Fill-14" fill="#FFFFFF" mask="url(#mask-2)"></path>
                    <polygon id="Fill-15" fill="#FFFFFF" mask="url(#mask-2)" points="174.8694 20.037 172.7904 20.037 172.7904 18.895 178.4074 18.895 178.4074 20.037 176.3254 20.037 176.3254 26.155 174.8694 26.155"></polygon>
                    <path d="M178.9485,26.1552 L180.4045,26.1552 L180.4045,23.1372 L180.8735,23.1372 C181.4855,23.1372 181.6725,23.3472 181.8825,23.8882 L182.7575,26.1552 L184.3785,26.1552 L183.2145,23.3162 C183.0675,22.9922 182.8385,22.5972 182.4435,22.5662 L182.4435,22.5462 C183.3705,22.4192 183.9425,21.7142 183.9425,20.8592 C183.9425,18.8402 182.0795,18.8952 180.5185,18.8952 L178.9485,18.8952 L178.9485,26.1552 Z M180.4045,20.0372 L180.8845,20.0372 C181.6105,20.0372 182.4235,20.1092 182.4235,20.9852 C182.4235,21.8882 181.6005,21.9952 180.8845,21.9952 L180.4045,21.9952 L180.4045,20.0372 Z" id="Fill-16" fill="#FFFFFF" mask="url(#mask-2)"></path>
                    <path d="M184.4192,26.1552 L185.9312,26.1552 L186.5642,24.4882 L189.5072,24.4882 L190.1302,26.1552 L191.7432,26.1552 L188.8922,18.8952 L187.2492,18.8952 L184.4192,26.1552 Z M189.1022,23.3472 L186.9802,23.3472 L188.0302,20.3512 L188.0482,20.3512 L189.1022,23.3472 Z" id="Fill-17" fill="#FFFFFF" mask="url(#mask-2)"></path>
                    <polygon id="Fill-18" fill="#FFFFFF" mask="url(#mask-2)" points="192.3469 18.8954 194.1349 18.8954 196.9039 24.3254 196.9229 24.3254 196.9229 18.8954 198.3169 18.8954 198.3169 26.1554 196.5379 26.1554 193.7609 20.7254 193.7399 20.7254 193.7399 26.1554 192.3469 26.1554"></polygon>
                    <path d="M203.5715,20.2255 C203.1105,20.0275 202.6035,19.9125 202.0945,19.9125 C201.5945,19.9125 200.9495,20.1305 200.9495,20.9205 C200.9495,22.1815 204.1325,21.6505 204.1325,24.0845 C204.1325,25.6765 202.8715,26.2795 201.4055,26.2795 C200.6165,26.2795 200.2625,26.1745 199.5445,25.9965 L199.6795,24.6885 C200.1775,24.9545 200.7505,25.1365 201.3235,25.1365 C201.8765,25.1365 202.6135,24.8555 202.6135,24.1975 C202.6135,22.8155 199.4305,23.3875 199.4305,20.9855 C199.4305,19.3605 200.6885,18.7685 201.9675,18.7685 C202.5915,18.7685 203.1755,18.8515 203.7055,19.0295 L203.5715,20.2255 Z" id="Fill-19" fill="#FFFFFF" mask="url(#mask-2)"></path>
                    <polygon id="Fill-20" fill="#FFFFFF" mask="url(#mask-2)" points="205.068 26.155 206.525 26.155 206.525 18.895 205.068 18.895"></polygon>
                    <polygon id="Fill-21" fill="#FFFFFF" mask="url(#mask-2)" points="209.1458 20.037 207.0658 20.037 207.0658 18.895 212.6828 18.895 212.6828 20.037 210.6018 20.037 210.6018 26.155 209.1458 26.155"></polygon>
                    <path d="M221.2649,26.0507 C220.7359,26.1747 220.1609,26.2797 219.6129,26.2797 C217.2609,26.2797 215.6259,25.1037 215.6259,22.6507 C215.6259,20.1617 217.1459,18.7687 219.6129,18.7687 C220.0899,18.7687 220.7249,18.8617 221.2549,19.0707 L221.1519,20.2967 C220.6009,19.9857 220.0989,19.9137 219.5779,19.9137 C218.0799,19.9137 217.1459,21.0547 217.1459,22.5457 C217.1459,24.0207 218.0609,25.1367 219.6129,25.1367 C220.1829,25.1367 220.8609,25.0097 221.2029,24.8317 L221.2649,26.0507 Z" id="Fill-22" fill="#FFFFFF" mask="url(#mask-2)"></path>
                    <path d="M221.7229,22.5018 C221.7229,24.7288 222.9509,26.2788 225.2809,26.2788 C227.5779,26.2788 228.8369,24.6968 228.8369,22.5018 C228.8369,20.3078 227.5579,18.7688 225.2809,18.7688 C222.9719,18.7688 221.7229,20.2758 221.7229,22.5018 M223.2439,22.5018 C223.2439,21.2238 223.8329,19.9138 225.2809,19.9138 C226.7259,19.9138 227.3199,21.2238 227.3199,22.5018 C227.3199,23.8138 226.7689,25.1368 225.2809,25.1368 C223.7929,25.1368 223.2439,23.8138 223.2439,22.5018" id="Fill-23" fill="#FFFFFF" mask="url(#mask-2)"></path>
                    <path d="M229.7864,26.1552 L231.2404,26.1552 L231.2404,23.1372 L231.7094,23.1372 C232.3214,23.1372 232.5104,23.3472 232.7204,23.8882 L233.5934,26.1552 L235.2144,26.1552 L234.0504,23.3162 C233.9044,22.9922 233.6754,22.5972 233.2804,22.5662 L233.2804,22.5462 C234.2064,22.4192 234.7774,21.7142 234.7774,20.8592 C234.7774,18.8402 232.9174,18.8952 231.3544,18.8952 L229.7864,18.8952 L229.7864,26.1552 Z M231.2404,20.0372 L231.7204,20.0372 C232.4464,20.0372 233.2594,20.1092 233.2594,20.9852 C233.2594,21.8882 232.4384,21.9952 231.7204,21.9952 L231.2404,21.9952 L231.2404,20.0372 Z" id="Fill-24" fill="#FFFFFF" mask="url(#mask-2)"></path>
                    <path d="M235.8801,26.1552 L237.3371,26.1552 L237.3371,23.3972 L237.9511,23.3972 C239.5111,23.3972 240.7491,22.7842 240.7491,21.0882 C240.7491,19.3512 239.3021,18.8952 237.7211,18.8952 L235.8801,18.8952 L235.8801,26.1552 Z M237.3371,20.0372 L237.8471,20.0372 C238.5971,20.0372 239.2301,20.3292 239.2301,21.1732 C239.2301,22.0132 238.5751,22.2542 237.8471,22.2542 L237.3371,22.2542 L237.3371,20.0372 Z" id="Fill-25" fill="#FFFFFF" mask="url(#mask-2)"></path>
                    <path d="M241.175,22.5018 C241.175,24.7288 242.404,26.2788 244.734,26.2788 C247.032,26.2788 248.29,24.6968 248.29,22.5018 C248.29,20.3078 247.013,18.7688 244.734,18.7688 C242.424,18.7688 241.175,20.2758 241.175,22.5018 M242.696,22.5018 C242.696,21.2238 243.288,19.9138 244.734,19.9138 C246.179,19.9138 246.773,21.2238 246.773,22.5018 C246.773,23.8138 246.221,25.1368 244.734,25.1368 C243.245,25.1368 242.696,23.8138 242.696,22.5018" id="Fill-26" fill="#FFFFFF" mask="url(#mask-2)"></path>
                    <path d="M249.2375,26.1552 L250.6945,26.1552 L250.6945,23.1372 L251.1615,23.1372 C251.7745,23.1372 251.9625,23.3472 252.1725,23.8882 L253.0465,26.1552 L254.6685,26.1552 L253.5035,23.3162 C253.3565,22.9922 253.1265,22.5972 252.7335,22.5662 L252.7335,22.5462 C253.6595,22.4192 254.2315,21.7142 254.2315,20.8592 C254.2315,18.8402 252.3685,18.8952 250.8075,18.8952 L249.2375,18.8952 L249.2375,26.1552 Z M250.6945,20.0372 L251.1715,20.0372 C251.9005,20.0372 252.7125,20.1092 252.7125,20.9852 C252.7125,21.8882 251.8905,21.9952 251.1715,21.9952 L250.6945,21.9952 L250.6945,20.0372 Z" id="Fill-27" fill="#FFFFFF" mask="url(#mask-2)"></path>
                    <path d="M254.7083,26.1552 L256.2193,26.1552 L256.8513,24.4882 L259.7963,24.4882 L260.4193,26.1552 L262.0323,26.1552 L259.1823,18.8952 L257.5403,18.8952 L254.7083,26.1552 Z M259.3923,23.3472 L257.2683,23.3472 L258.3183,20.3512 L258.3393,20.3512 L259.3923,23.3472 Z" id="Fill-28" fill="#FFFFFF" mask="url(#mask-2)"></path>
                    <polygon id="Fill-29" fill="#FFFFFF" mask="url(#mask-2)" points="263.1985 20.037 261.1205 20.037 261.1205 18.895 266.7375 18.895 266.7375 20.037 264.6555 20.037 264.6555 26.155 263.1985 26.155"></polygon>
                    <polygon id="Fill-30" fill="#FFFFFF" mask="url(#mask-2)" points="267.279 26.155 268.733 26.155 268.733 18.895 267.279 18.895"></polygon>
                    <path d="M269.679,22.5018 C269.679,24.7288 270.908,26.2788 273.239,26.2788 C275.536,26.2788 276.796,24.6968 276.796,22.5018 C276.796,20.3078 275.517,18.7688 273.239,18.7688 C270.929,18.7688 269.679,20.2758 269.679,22.5018 M271.199,22.5018 C271.199,21.2238 271.792,19.9138 273.239,19.9138 C274.684,19.9138 275.278,21.2238 275.278,22.5018 C275.278,23.8138 274.724,25.1368 273.239,25.1368 C271.75,25.1368 271.199,23.8138 271.199,22.5018" id="Fill-31" fill="#FFFFFF" mask="url(#mask-2)"></path>
                    <polygon id="Fill-32" fill="#FFFFFF" mask="url(#mask-2)" points="277.7942 18.8954 279.5842 18.8954 282.3492 24.3254 282.3702 24.3254 282.3702 18.8954 283.7652 18.8954 283.7652 26.1554 281.9872 26.1554 279.2082 20.7254 279.1892 20.7254 279.1892 26.1554 277.7942 26.1554"></polygon>
                    <path d="M181.6887,8.1434 L181.6887,6.9634 L182.5187,6.9634 L183.0757,5.7734 L181.6887,5.7734 L181.6887,3.7894 L179.9777,3.7894 L179.9777,5.7734 L178.6477,5.7734 L178.6477,6.9634 L179.9777,6.9634 L179.9777,10.2064 C179.5847,10.5824 179.1337,10.9514 178.6377,11.2484 L178.6377,12.9814 C178.9627,12.8424 179.4427,12.5464 179.9777,12.1224 L179.9777,14.7354 C179.9777,14.9154 179.9007,15.1954 179.5667,15.1954 L178.7647,15.1954 L178.7647,16.4114 L180.3397,16.4114 C181.2647,16.4114 181.7587,15.8394 181.6887,15.0664 L181.6887,10.3474 C182.2027,9.6964 182.5847,8.9514 182.8607,8.1434 L181.6887,8.1434 Z" id="Fill-33" fill="#FFFFFF" mask="url(#mask-2)"></path>
                    <path d="M130.6057,7.9901 L126.3817,7.9901 L126.3817,9.4731 L130.6057,9.4731 L130.6057,14.0651 C130.6057,14.5871 130.3957,14.8451 129.9017,14.8451 L126.2207,14.8451 L126.2207,16.3731 L130.8957,16.3731 C132.4347,16.3731 132.7987,15.5751 132.7987,14.3651 L132.7987,3.7831 L130.6057,3.7831 L130.6057,7.9901 Z" id="Fill-34" fill="#FFFFFF" mask="url(#mask-2)"></path>
                    <path d="M120.2395,9.9061 L113.0985,9.9061 L112.4715,11.1971 L119.5165,11.1971 C121.0915,11.1971 121.4825,12.1751 121.4825,13.0921 C121.4825,14.2441 120.9115,15.1171 119.5385,15.1171 L112.2035,15.1171 L112.2035,9.9071 L109.9615,9.9071 L109.9615,16.3711 L120.2395,16.3711 C122.0555,16.3711 123.7105,15.4291 123.7105,13.1231 C123.7105,10.8221 122.0885,9.9061 120.2395,9.9061" id="Fill-35" fill="#FFFFFF" mask="url(#mask-2)"></path>
                    <path d="M308.9319,11.4882 C308.9319,9.9922 307.9839,8.9342 306.3349,8.9342 L302.2749,8.9342 L301.7159,10.1302 L305.6679,10.1302 C306.6499,10.1302 307.0579,10.6642 307.0579,11.4472 C307.0579,12.2302 306.6769,12.8782 305.6679,12.8782 L301.3959,12.8782 L301.3959,8.9252 L299.5049,8.9252 L299.5049,14.0652 L306.3349,14.0652 C307.9529,14.0652 308.9319,12.9882 308.9319,11.4882" id="Fill-36" fill="#FFFFFF" mask="url(#mask-2)"></path>
                    <path d="M225.47,6.2792 L225.47,7.3682 C225.47,8.3192 225.969,8.8822 226.923,8.8822 L227.491,8.8822 L227.988,7.7672 L227.659,7.7672 C227.394,7.7602 227.254,7.5762 227.254,7.3552 L227.254,5.8962 C227.254,4.9192 226.92,4.2032 225.296,4.2032 L222.551,4.2032 L222.062,5.2582 L224.63,5.2582 C225.373,5.2582 225.47,5.7122 225.47,6.2792" id="Fill-37" fill="#FFFFFF" mask="url(#mask-2)"></path>
                    <polygon id="Fill-38" fill="#FFFFFF" mask="url(#mask-2)" points="220.094 8.878 221.832 8.878 221.832 4.203 220.094 4.203"></polygon>
                    <path d="M121.8645,4.204 L119.5165,4.204 C120.3445,5.1 120.8805,5.838 121.3255,6.603 C121.6435,7.151 121.5625,7.603 120.8225,7.603 L111.8705,7.603 L114.3275,3.811 L111.8765,3.811 C111.8765,3.811 110.1865,6.427 109.6265,7.174 C109.0465,7.947 109.3685,8.855 110.3295,8.855 L122.3395,8.855 C123.5505,8.855 124.2475,7.977 123.6895,6.806 C123.3195,6.032 122.4475,4.809 121.8645,4.204" id="Fill-39" fill="#FFFFFF" mask="url(#mask-2)"></path>
                    <path d="M136.8606,14.0653 L136.8606,9.4733 L140.7026,9.4733 L141.4366,7.9903 L136.8606,7.9903 L136.8606,3.7833 L134.6806,3.7833 L134.6806,14.3653 C134.6806,15.5763 135.0466,16.3733 136.5856,16.3733 L140.8836,16.3733 L141.6166,14.8453 L137.5646,14.8453 C137.0726,14.8453 136.8606,14.5863 136.8606,14.0653" id="Fill-40" fill="#FFFFFF" mask="url(#mask-2)"></path>
                    <path d="M152.3586,7.8036 L157.8746,7.8036 L158.6146,6.2646 L152.2546,6.2646 L152.2546,3.8046 L149.9226,3.8046 L149.9226,6.2646 L143.9206,6.2646 L143.9206,7.8036 L149.8326,7.8036 C149.3406,11.1766 147.4056,13.5596 143.5906,14.8146 L143.5906,16.5346 C148.4106,15.5666 150.7296,12.2076 151.0926,10.8526 C151.6836,12.5856 153.9016,15.3426 157.6756,16.5796 L159.1626,15.0936 C155.4366,14.2936 152.4636,11.0656 152.3586,7.8036" id="Fill-41" fill="#FFFFFF" mask="url(#mask-2)"></path>
                    <path d="M293.6506,11.6757 L291.1326,11.6757 C291.9356,12.8077 292.9606,13.8677 293.8446,15.1337 L285.4326,15.1337 C286.8196,13.7207 288.6626,11.5507 289.6476,8.4437 L287.3166,8.4437 C286.5346,11.0767 284.0436,13.6547 283.4056,14.3517 C282.5696,15.2577 283.0856,16.3147 284.3666,16.3247 L295.0436,16.3247 C296.0946,16.3147 296.5126,15.4157 295.8676,14.5697 C295.0016,13.4377 294.6066,12.9717 293.6506,11.6757" id="Fill-42" fill="#FFFFFF" mask="url(#mask-2)"></path>
                    <polygon id="Fill-43" fill="#FFFFFF" mask="url(#mask-2)" points="265.24 16.359 266.911 16.359 266.911 3.807 265.24 3.807"></polygon>
                    <path d="M269.1868,8.9433 C269.1868,8.9433 269.8348,6.7423 270.0718,5.9703 C270.5588,4.3813 269.8818,3.7953 268.6928,3.7953 L267.6988,3.7953 L267.1398,4.9283 L268.0378,4.9283 C268.2608,4.9193 268.5868,5.0593 268.4408,5.7173 C268.3628,6.0653 267.8358,7.8733 267.5268,8.8303 C267.3688,9.3053 267.4548,9.7713 267.6218,10.0083 C267.9448,10.4643 268.6888,12.2163 268.7908,12.8673 C268.9368,13.7903 268.7048,14.2353 267.3138,14.2353 L267.7768,15.4233 C268.8648,15.5313 270.4718,15.4393 270.4718,13.2183 C270.4718,11.9813 269.6808,10.5113 269.1848,9.6723 C269.0938,9.5143 269.1088,9.1313 269.1868,8.9433" id="Fill-44" fill="#FFFFFF" mask="url(#mask-2)"></path>
                    <path d="M276.8,13.6835 C279.599,12.0535 280.118,10.8965 280.118,10.8965 L278.232,10.8965 C277.861,11.4615 276.579,12.3715 276.064,12.5875 C275.756,12.1175 275.392,11.1795 275.249,10.2815 L276.493,10.2815 C278.363,10.2815 279.491,8.9545 279.491,7.2305 C279.491,5.4995 278.395,4.1975 276.493,4.1975 L273.788,4.1975 L273.255,5.2645 L275.847,5.2645 C277.143,5.2645 277.685,6.1235 277.685,7.1675 C277.685,8.2135 277.183,9.2225 275.847,9.2225 L273.005,9.2225 L273.005,7.7605 L276.794,7.7605 L277.28,6.6815 L273.005,6.6815 L273.005,4.2095 L271.191,4.2095 L271.191,15.0855 C271.191,15.8575 271.689,16.3575 272.509,16.3575 L275.104,16.3575 L275.65,15.2315 L273.308,15.2315 C273.122,15.2315 272.994,15.1565 272.994,14.9665 L272.994,10.2815 L273.503,10.2815 C274.509,14.4445 276.741,15.8565 279.616,16.4605 L280.298,15.3515 C279.439,15.3025 277.371,14.4195 276.8,13.6835" id="Fill-45" fill="#FFFFFF" mask="url(#mask-2)"></path>
                    <polygon id="Fill-46" fill="#FFFFFF" mask="url(#mask-2)" points="309.1868 6.5751 299.1408 6.5751 299.1408 7.7541 308.6598 7.7541"></polygon>
                    <path d="M227.0295,12.6933 C228.4265,11.1413 228.0555,9.5053 225.7805,9.5053 L220.3225,9.5053 L220.3225,10.5803 L225.0685,10.5803 C225.9305,10.5803 225.9365,11.1603 225.5735,11.6763 C225.2395,12.1503 224.5575,13.0243 223.6595,13.5893 C223.0105,12.9843 222.5085,12.1223 222.2495,11.0093 L220.2835,11.0093 C220.4815,12.2053 221.3285,13.6293 222.3075,14.4063 C221.5895,14.7543 220.5955,15.0413 219.5845,15.2463 L219.5845,16.4553 C220.6735,16.2863 222.2495,15.9003 223.6085,15.2493 C224.9265,15.9213 226.2905,16.2963 228.1155,16.4113 L228.5695,15.3023 C227.5445,15.2173 226.1045,14.9853 224.9865,14.4673 C225.8355,13.9143 226.3075,13.4953 227.0295,12.6933" id="Fill-47" fill="#FFFFFF" mask="url(#mask-2)"></path>
                    <polygon id="Fill-48" fill="#FFFFFF" mask="url(#mask-2)" points="217.2668 11.0604 215.3818 11.0604 215.3818 8.4054 216.7048 8.4054 217.2188 7.3824 215.3818 7.3824 215.3818 3.7994 213.7458 3.7994 213.7458 16.3714 215.3818 16.3714 215.3818 12.1004 216.7488 12.1004"></polygon>
                    <path d="M243.8303,5.8163 C243.4073,4.3813 242.7013,4.2033 241.4303,4.2033 L239.6283,4.2033 L239.0743,5.3393 L240.8543,5.3393 C241.4033,5.3393 241.7493,5.5753 241.9813,6.3813 C242.3353,7.5903 242.7203,8.5663 243.4123,9.3383 C243.0813,9.2613 242.7583,9.2593 242.6013,9.2593 L236.3043,9.2593 C237.3283,8.2953 238.4903,6.3283 238.6183,4.2123 L236.5933,4.2123 C236.4643,6.0543 235.5953,8.2803 234.1813,9.1793 L234.1813,10.6123 C234.4203,10.6263 235.6513,9.9003 235.9453,9.5403 L235.9453,10.3823 L238.1033,10.3823 C237.9303,12.6113 236.6813,14.6093 234.9273,15.3203 L234.9273,16.4823 C237.5133,16.2343 239.7223,13.6783 240.1983,10.3823 L241.6013,10.3823 C241.9523,10.3823 242.2863,10.4853 242.5203,11.0163 C242.7963,11.6503 242.7053,13.8233 242.3843,14.6063 C242.1903,15.0873 241.9203,15.1703 241.3623,15.1703 L238.9603,15.1703 L239.6183,16.3683 L242.2703,16.3683 C243.2183,16.3683 243.7623,15.9443 244.2143,15.1713 C244.7983,14.1803 244.9033,11.6503 244.4053,10.1733 C244.5773,10.2813 244.7583,10.3863 244.9563,10.4853 L245.8033,9.3793 C244.2603,8.5393 244.2233,7.1473 243.8303,5.8163" id="Fill-49" fill="#FFFFFF" mask="url(#mask-2)"></path>
                    <path d="M294.3508,5.8661 C293.9288,4.4301 293.2198,4.2511 291.9508,4.2511 L287.9458,4.2511 L287.4878,5.3881 L291.2508,5.3881 C291.7978,5.3881 292.2828,5.6231 292.5008,6.4311 C293.1418,8.7651 294.7938,10.3141 295.7278,10.6331 L296.8938,9.6131 C295.5798,8.8921 294.7418,7.1941 294.3508,5.8661" id="Fill-50" fill="#FFFFFF" mask="url(#mask-2)"></path>
                    <path d="M286.9973,4.1591 L284.9743,4.1591 C284.8443,5.9991 283.5593,8.5661 282.1433,9.4621 L282.1433,11.0131 C284.3153,10.7081 286.8863,6.8101 286.9973,4.1591" id="Fill-51" fill="#FFFFFF" mask="url(#mask-2)"></path>
                    <path d="M254.5364,3.7948 L252.2004,3.7948 C251.9784,4.1968 251.9464,4.2828 251.6974,4.6148 L247.6874,4.6148 L247.6874,5.7458 L251.0004,5.7458 C249.9074,7.4468 249.1264,8.1958 247.5134,9.3808 L247.5134,10.7908 C248.1294,10.5688 248.9344,10.0998 249.5284,9.6768 L249.5284,16.3818 L251.4424,16.3818 L251.4424,13.7278 L258.7294,13.7278 L259.2694,12.6488 L251.4424,12.6488 L251.4424,11.1658 L258.7294,11.1658 L259.2694,10.0608 L251.4424,10.0608 L251.4424,8.6408 L257.8584,8.6408 C259.4704,8.6408 259.7084,9.9098 259.7084,11.6758 L259.7084,11.8258 L259.7084,11.8378 L259.7084,11.9878 C259.7084,13.7538 259.5434,15.1908 258.1944,15.1908 L256.0914,15.1908 L256.7904,16.3718 L258.2864,16.3718 C260.3484,16.3718 261.6004,15.4408 261.6004,12.0168 L261.6004,11.6758 C261.6004,8.9908 260.7124,7.4738 258.3414,7.4738 L251.9764,7.4738 C252.5504,6.8748 252.9174,6.3868 253.3324,5.7458 L261.7414,5.7458 L262.2684,4.6148 L254.0154,4.6148 C254.1574,4.4338 254.3594,4.0438 254.5364,3.7948" id="Fill-52" fill="#FFFFFF" mask="url(#mask-2)"></path>
                    <path d="M307.9905,4.2157 L298.6835,4.2157 L298.6835,5.3697 L307.5115,5.3697 C310.2295,5.3697 310.7865,7.2847 310.7865,9.8677 L310.7865,10.0997 L310.7865,10.1057 L310.7865,10.3447 C310.7865,12.7687 310.7195,15.1627 307.4795,15.1627 L305.6265,15.1627 L306.1165,16.3607 L308.0465,16.3607 C311.2235,16.3607 312.7195,15.0807 312.7195,10.3827 L312.7195,9.8677 C312.7195,6.0337 311.0895,4.2157 307.9905,4.2157" id="Fill-53" fill="#FFFFFF" mask="url(#mask-2)"></path>
                    <path d="M216.5325,3.8134 L216.0465,3.8134 L215.5855,4.8254 L216.1305,4.8254 C217.4775,4.8254 217.5395,5.3434 217.5395,10.2344 C217.5395,14.1514 217.4265,15.4234 216.7865,15.4234 L216.2265,15.4234 L216.8325,16.4434 L217.0365,16.4434 C218.7865,16.4434 219.1755,15.6064 219.1755,10.2344 C219.1755,4.3154 218.8255,3.8134 216.5325,3.8134" id="Fill-54" fill="#FFFFFF" mask="url(#mask-2)"></path>
                    <path d="M232.7776,3.7948 C232.6316,5.8698 231.7106,7.9488 230.6896,9.0378 L230.6896,10.7548 C231.1026,10.4408 231.2126,10.3618 231.5876,9.9778 L231.5876,16.3538 L233.5446,16.3538 L233.5446,7.8868 C234.2456,6.8338 234.7266,5.1548 234.8566,3.7948 L232.7776,3.7948 Z" id="Fill-55" fill="#FFFFFF" mask="url(#mask-2)"></path>
                    <path d="M188.4846,9.6288 L190.9136,9.6288 C190.7686,10.1268 190.4186,10.5578 189.7826,10.5578 L188.4846,10.5578 L188.4846,9.6288 Z M188.4846,7.6578 L189.7996,7.6578 C190.4366,7.6578 190.7916,8.0698 190.9276,8.5608 L188.4846,8.5608 L188.4846,7.6578 Z M190.3966,11.5878 C191.5986,11.5878 192.3706,10.7018 192.5676,9.6288 L193.0326,9.6288 L193.5126,8.5608 L192.5716,8.5608 C192.3876,7.4828 191.6286,6.5948 190.3966,6.5948 L188.4846,6.5948 L188.4846,5.6978 L192.5886,5.6978 L193.0916,4.6398 L188.4846,4.6398 L188.4846,3.7918 L186.7996,3.7918 L186.7996,4.6398 L183.3466,4.6398 L183.3466,5.6978 L186.7996,5.6978 L186.7996,6.5948 L183.8486,6.5948 L183.8486,7.6578 L186.7996,7.6578 L186.7996,8.5608 L183.3216,8.5608 L183.3216,9.6288 L186.7996,9.6288 L186.7996,10.5578 L183.8486,10.5578 L183.8486,11.5878 L186.7996,11.5878 L186.7996,15.2328 C185.9336,15.1648 185.1336,14.4988 184.8096,13.8878 C185.0846,13.2658 185.2166,12.5508 185.2656,12.0738 L183.5636,12.0738 C183.4736,13.4008 183.0426,14.4508 182.1496,15.1088 L182.1496,16.5248 C182.9446,16.2108 183.6376,15.5608 184.1266,14.9528 C184.6226,15.6278 185.4286,16.3578 187.0966,16.3578 L192.7966,16.3578 L193.3156,15.2368 L188.4846,15.2368 L188.4846,13.7908 L191.9086,13.7908 L192.4126,12.7368 L188.4846,12.7368 L188.4846,11.5878 L190.3966,11.5878 Z" id="Fill-56" fill="#FFFFFF" mask="url(#mask-2)"></path>
                    <path d="M166.9387,11.1034 C165.0117,12.2094 162.6967,12.5824 161.4127,12.7994 L161.4127,14.1504 C162.6577,13.9054 164.9617,13.5104 166.9387,12.6244 L166.9387,11.1034 Z" id="Fill-57" fill="#FFFFFF" mask="url(#mask-2)"></path>
                    <path d="M172.5833,7.6757 L170.9133,7.6727 L171.4853,5.9107 L172.4303,5.9107 C173.7623,5.9107 172.9983,7.6757 172.5833,7.6757 L172.5833,7.6757 Z M169.1963,7.6717 L167.3063,7.6697 L167.8743,5.9137 L169.7933,5.9107 L169.1963,7.6717 Z M165.5833,7.6697 L164.0713,7.6677 L164.0713,5.9137 L166.1813,5.9137 L165.5833,7.6697 Z M175.9503,7.6677 L174.7603,7.6677 C175.5293,6.0417 174.8923,4.7827 173.0633,4.7827 L169.2693,4.7827 L169.5503,3.8247 L167.5583,3.8247 L167.2483,4.7827 L162.3353,4.7827 L162.3353,7.6677 L161.3603,7.6677 L161.3603,8.8037 L175.4073,8.8037 L175.9503,7.6677 Z" id="Fill-58" fill="#FFFFFF" mask="url(#mask-2)"></path>
                    <path d="M161.1125,16.4384 C163.1595,16.3594 165.9135,15.6724 167.5015,14.8374 L167.5015,13.3384 C166.0485,14.1824 163.5085,15.0334 161.1125,15.2054 L161.1125,16.4384 Z" id="Fill-59" fill="#FFFFFF" mask="url(#mask-2)"></path>
                    <path d="M175.4807,9.7128 L173.4337,9.7128 C172.8387,10.5568 171.2497,11.5858 170.2057,12.0748 C170.0417,11.9418 169.8767,11.7998 169.7157,11.6558 C169.5287,10.1938 169.0297,9.3628 167.1377,9.3628 L162.0327,9.3628 L162.0327,10.4818 L166.3177,10.4818 C167.8957,10.4818 167.9777,11.5138 168.0187,12.4658 C168.0507,13.2158 168.1317,15.0748 167.9447,16.4418 L169.6587,16.4418 C169.7637,15.4858 169.8227,14.6488 169.8307,13.8308 C172.0387,15.3318 174.1297,16.0198 175.5347,16.4108 L176.4487,15.2958 C175.2067,14.9838 173.3017,14.2558 171.4047,12.9698 C172.7217,12.3348 174.8747,10.8718 175.4807,9.7128" id="Fill-60" fill="#FFFFFF" mask="url(#mask-2)"></path>
                    <path d="M195.9778,8.622 L197.6778,8.622 C197.9368,8.304 198.6418,7.032 198.9978,5.993 L197.6778,5.993 C198.0708,5.362 198.5328,4.537 198.7928,3.809 L196.9028,3.809 C196.7258,4.319 196.2528,5.429 195.6238,6.481 L197.0198,6.481 C196.7568,7.168 196.4188,7.768 195.9778,8.622" id="Fill-61" fill="#FFFFFF" mask="url(#mask-2)"></path>
                    <path d="M202.075,11.318 L204.302,11.318 L204.302,10.523 L202.075,10.523 L202.075,11.318 Z M205.948,10.522 L207.503,10.522 L207.902,9.526 L205.948,9.526 L205.948,8.818 L207.168,8.818 C207.793,8.818 208.299,9.23 208.299,10.024 C208.299,10.817 207.818,11.318 207.168,11.318 L205.948,11.318 L205.948,10.522 Z M205.948,5.143 L208.363,5.143 C208.702,5.143 208.845,5.352 208.845,5.623 C208.845,5.896 208.713,6.145 208.363,6.145 L205.948,6.145 L205.948,5.143 Z M205.948,15.22 L205.948,14.069 L209.426,14.069 L209.865,13.078 L205.948,13.078 L205.948,12.349 L207.743,12.349 C209.148,12.349 209.995,11.353 209.995,10.056 C209.995,8.759 209.174,7.781 207.743,7.781 L205.948,7.781 L205.948,7.133 L208.99,7.133 C209.907,7.133 210.461,6.483 210.461,5.635 C210.461,4.789 209.923,4.148 208.99,4.148 L202.198,4.148 L201.679,5.143 L204.302,5.143 L204.302,6.145 L201.482,6.145 L201.482,4.17 L199.827,4.17 L199.827,6.769 L200.833,6.769 L200.833,7.133 L204.302,7.133 L204.302,7.781 L202.776,7.781 L202.279,8.818 L204.302,8.818 L204.302,9.526 L202.075,9.526 L202.075,7.791 L200.439,7.791 L200.439,12.349 L204.302,12.349 L204.302,13.078 L200.084,13.078 L200.084,14.069 L204.302,14.069 L204.302,15.217 L201.755,15.217 C199.972,15.217 199.099,13.509 199.099,12.223 C199.099,10.241 198.595,9.497 196.512,9.497 L195.902,9.497 L195.902,10.702 L196.323,10.702 C197.103,10.702 197.396,11.116 197.396,12.172 L197.396,12.865 C197.396,14.108 197.061,14.866 195.87,15.27 L195.87,16.512 C196.591,16.463 197.62,16.261 198.649,14.881 C199.601,16 200.377,16.346 202.024,16.346 C204.378,16.346 207.443,16.338 210.064,16.346 L210.506,15.217 C210.427,15.222 208.17,15.222 205.948,15.22 L205.948,15.22 Z" id="Fill-62" fill="#FFFFFF" mask="url(#mask-2)"></path>
                    <path d="M10.4563,15.3075 L5.9073,15.3075 L5.1193,13.5635 L10.5863,13.5635 C10.9753,13.5635 11.1643,13.4895 11.4853,13.1675 C11.7853,12.8695 14.1093,10.5835 14.4423,10.2375 C14.7793,9.8895 15.0723,9.7885 15.5663,9.7885 C16.1063,9.7885 22.5943,9.7905 22.5943,9.7905 L19.3483,13.0585 L17.7953,13.0585 C17.4043,13.0585 17.2553,13.0695 16.9653,13.3655 C16.7663,13.5735 14.5513,15.7665 14.1313,16.1935 C13.7113,16.6195 13.4543,16.7195 12.9883,16.7195 L7.3393,16.7195 L6.9133,15.7575 L11.3213,15.7575 C11.6543,15.7575 11.8653,15.6945 12.0953,15.4635 C12.3093,15.2495 14.4863,13.0585 14.4863,13.0585 L13.7683,13.0585 C13.4753,13.0585 13.2543,13.0935 12.9663,13.3825 C12.7253,13.6225 11.8313,14.5145 11.5313,14.8145 C11.1583,15.1895 10.9193,15.3075 10.4563,15.3075" id="Fill-63" fill="#006AB2" mask="url(#mask-2)"></path>
                    <path d="M20.1194,12.8554 C18.3514,16.9174 14.3854,20.0754 10.2784,20.2514 C6.4584,20.4154 3.6014,17.5914 3.9334,13.5634 L0.0204,13.5634 C-0.2956,18.5014 3.1064,22.3244 8.4124,22.3244 C14.2264,22.3244 20.4944,18.0194 22.5334,10.4574 L20.1194,12.8554 Z" id="Fill-64" fill="#7AB51D" mask="url(#mask-2)"></path>
                    <path d="M12.2561,7.6024 L16.8031,7.6024 L17.5941,9.3424 L12.1251,9.3424 C11.7381,9.3424 11.5491,9.4184 11.2291,9.7414 C10.9281,10.0374 8.6021,12.3224 8.2701,12.6684 C7.9321,13.0184 7.6421,13.1204 7.1471,13.1204 C6.6041,13.1204 0.1171,13.1174 0.1171,13.1174 L3.3661,9.8484 L4.9181,9.8484 C5.3101,9.8484 5.4581,9.8364 5.7481,9.5404 C5.9451,9.3354 8.1601,7.1394 8.5801,6.7144 C9.0041,6.2874 9.2601,6.1874 9.7261,6.1874 L15.3751,6.1874 L15.8011,7.1494 L11.3151,7.1494 C10.9831,7.1494 10.7701,7.2134 10.5391,7.4434 C10.3261,7.6584 8.1491,9.8484 8.1491,9.8484 L8.9461,9.8484 C9.2391,9.8484 9.4591,9.8154 9.7481,9.5244 C9.9891,9.2874 10.8811,8.3924 11.1841,8.0924 C11.5551,7.7164 11.7951,7.6024 12.2561,7.6024" id="Fill-65" fill="#7AB51D" mask="url(#mask-2)"></path>
                    <path d="M2.595,10.0487 C4.359,5.9877 8.324,2.8327 12.434,2.6577 C16.254,2.4887 19.111,5.3167 18.778,9.3447 L22.69,9.3447 C23.008,4.4027 19.61,0.5807 14.299,0.5807 C8.485,0.5807 2.217,4.8897 0.176,12.4507 L2.595,10.0487 Z" id="Fill-66" fill="#006AB2" mask="url(#mask-2)"></path>
                    <path d="M86.7834,10.7284 C86.7834,8.1244 84.9084,6.0414 81.3424,6.0414 C77.2504,6.0414 74.6194,8.5544 74.6194,12.1904 C74.6194,14.8444 76.1624,16.9764 80.0584,16.9764 C83.9764,16.9764 86.7834,15.0834 86.7834,10.7284 L86.7834,10.7284 Z M83.1794,10.5464 C83.1794,13.3264 81.9764,14.9664 80.3164,14.9664 C79.0904,14.9904 78.2604,13.9014 78.2604,12.2124 C78.2604,10.2734 79.4384,8.0944 81.1664,8.0944 C82.5634,8.0944 83.1794,9.2794 83.1794,10.5464 L83.1794,10.5464 Z M73.0044,6.0034 C73.6624,6.0034 74.8404,6.1854 75.4874,6.5544 L74.3444,8.8194 C73.8874,8.5774 73.2634,8.1244 72.3834,8.1244 C71.0974,8.1244 70.4594,8.6814 69.9614,10.7774 C69.9614,10.7774 69.0644,15.0104 68.9994,15.4004 C68.8744,16.1424 69.1134,16.7234 69.1134,16.7234 L65.2034,16.7234 C65.2034,16.7234 67.0294,8.2594 67.1384,7.7124 C67.2854,6.9394 67.0194,6.2764 67.0194,6.2764 L70.5604,6.2764 C71.3084,6.0374 72.4804,6.0034 73.0044,6.0034 L73.0044,6.0034 Z M59.4564,6.2784 C59.5824,5.6104 59.3094,4.8644 59.3094,4.8644 L63.5434,3.6994 L62.9784,6.2764 L65.7054,6.2764 L65.3734,8.3744 L62.5544,8.3744 C62.5544,8.3744 61.1384,14.8184 61.0334,15.4234 C60.9314,16.0284 61.1484,16.7234 61.1484,16.7234 L57.2514,16.7234 C57.2514,16.7234 59.3954,6.5964 59.4564,6.2784 L59.4564,6.2784 Z M55.5624,14.5054 C53.5224,14.9504 52.4904,14.9504 51.5234,14.9504 C49.5464,14.9504 48.6494,13.8934 48.6804,12.5464 L56.1214,12.5464 C56.2144,12.0104 56.2954,11.3564 56.3494,10.9104 C56.7474,7.5384 54.1494,6.0414 51.5514,6.0414 C46.9004,6.0414 45.3024,9.7824 45.3024,12.1904 C45.3024,14.8444 47.1784,16.9764 50.6814,16.9764 C51.7094,16.9764 53.0664,16.9114 54.5434,16.6254 L55.5624,14.5054 Z M48.8964,10.5314 C49.1304,9.1774 49.8084,8.1084 51.4844,8.1464 C52.8064,8.1734 53.2344,9.0564 53.0414,10.5314 L48.8964,10.5314 Z M30.9674,6.2764 C31.6814,6.0114 33.1004,5.9374 34.2154,6.1424 C35.0874,6.3004 35.8444,6.7104 36.2874,7.0994 C37.3964,6.4154 38.6664,5.9944 40.3904,6.0564 C42.2874,6.1304 44.0684,6.7814 44.0294,9.0244 C44.0184,9.7004 43.8064,10.6124 43.5784,11.5014 C43.5784,11.5014 42.8364,14.8744 42.7544,15.3634 C42.6574,15.9404 42.7964,16.7234 42.7964,16.7234 L38.9894,16.7234 L40.2754,10.6964 C40.3944,10.1424 40.4884,9.7004 40.5124,9.2874 C40.5474,8.5924 40.0704,8.1084 39.2894,8.1084 C37.7874,8.1084 37.4704,9.3264 37.2304,10.4524 C37.2304,10.4524 36.2064,15.0424 36.1574,15.4164 C36.0944,15.9234 36.2504,16.7234 36.2504,16.7234 L32.4064,16.7234 L33.6474,10.6964 C33.7684,10.1424 33.8874,9.6474 33.9064,9.2304 C33.9274,8.5544 33.6394,8.1084 32.7664,8.1084 C31.2364,8.1084 30.8664,9.2714 30.5994,10.4184 C30.5994,10.4184 29.6714,14.8484 29.5824,15.2864 C29.4634,15.8614 29.6014,16.7234 29.6014,16.7234 L25.7774,16.7234 C25.7774,16.7234 27.5694,8.3744 27.6954,7.7504 C27.8774,6.8684 27.6664,6.2764 27.6664,6.2764 L30.9674,6.2764 Z" id="Fill-67" fill="#FFFFFF" mask="url(#mask-2)"></path>
                    <path d="M84.3635,19.995 L85.8835,19.995 L86.1965,18.58 L84.6745,18.58 L84.3635,19.995 Z M82.9635,26.714 L84.4165,26.714 L85.6395,20.987 L84.1335,20.987 L82.9635,26.714 Z M81.6715,25.171 C81.0705,25.5 80.4105,25.779 79.6915,25.779 C78.7915,25.779 78.2525,25.229 78.3855,24.315 L82.2635,24.315 C82.6915,22.319 82.3915,20.888 80.3305,20.888 C78.5795,20.888 77.3465,22.229 77.0235,23.925 C76.6135,25.779 77.4905,26.808 79.4005,26.808 C80.1855,26.808 80.8205,26.692 81.4165,26.388 L81.6715,25.171 Z M78.6095,23.354 C78.8285,22.528 79.3655,21.933 80.1825,21.933 C81.0005,21.933 81.2055,22.562 81.0955,23.354 L78.6095,23.354 Z M69.6005,29 L71.0955,29 L71.7115,26.034 L71.7365,26.034 C72.1175,26.692 72.5975,26.808 73.2075,26.808 C74.9685,26.808 75.9115,25.404 76.2415,23.877 C76.5545,22.263 76.2285,20.888 74.5065,20.888 C73.6445,20.888 72.9965,21.255 72.5565,21.792 L72.5365,21.792 L72.7135,20.987 L71.3065,20.987 L69.6005,29 Z M73.8745,22.004 C74.8165,22.004 74.8565,23.06 74.7025,23.877 C74.5495,24.647 74.0365,25.71 73.0835,25.71 C72.1175,25.71 72.0215,24.671 72.1855,23.877 C72.3455,23.025 72.9375,22.004 73.8745,22.004 L73.8745,22.004 Z M68.7595,18.58 L70.2895,18.58 L69.9825,19.995 L68.4575,19.995 L68.7595,18.58 Z M68.2305,20.987 L69.7675,20.987 L68.5095,26.714 L67.0455,26.714 L68.2305,20.987 Z M66.2955,23.34 C66.6345,21.603 66.0805,20.888 64.3655,20.888 C63.7505,20.888 62.9505,21.021 62.3335,21.308 L62.1035,22.562 C62.6685,22.192 63.3345,21.933 63.9725,21.933 C64.8325,21.933 65.1655,22.263 64.9675,23.207 L64.1545,23.207 C63.5535,23.207 62.8225,23.308 62.2185,23.533 C61.5725,23.829 61.0145,24.294 60.8325,25.137 C60.6245,26.224 61.4945,26.808 62.5075,26.808 C63.1875,26.808 63.9955,26.495 64.4615,25.876 L64.4845,25.876 C64.4565,26.013 64.3735,26.411 64.3655,26.714 L65.6625,26.714 L66.2955,23.34 Z M62.3315,25.074 C62.4975,24.218 63.4955,24.125 64.1485,24.125 L64.7915,24.125 C64.7055,24.528 64.5485,24.965 64.2315,25.237 C63.9545,25.571 63.5495,25.779 63.1165,25.779 C62.5725,25.779 62.2305,25.558 62.3315,25.074 L62.3315,25.074 Z M59.1995,19.78 L57.0045,19.78 L57.2695,18.58 L63.2355,18.58 L62.9725,19.78 L60.7295,19.78 L59.2595,26.714 L57.7365,26.714 L59.1995,19.78 Z" id="Fill-68" fill="#FFFFFF" mask="url(#mask-2)"></path>
                    <g id="Group-71" mask="url(#mask-2)">
                        <g transform="translate(98.000000, 3.000000)">
                            <path d="M0.531,0.7831 L0.531,23.8081" id="Fill-69" stroke="none" fill="#FFFFFF" fill-rule="evenodd"></path>
                            <path d="M0.531,0.7831 L0.531,23.8081" id="Stroke-70" stroke="#FFFFFF" stroke-width="0.483" fill="none"></path>
                        </g>
                    </g>
                </g>
            </g>
        </g>
    </g>
</svg>