<?xml version="1.0" encoding="UTF-8"?>
<svg width="142px" height="133px" viewBox="0 0 142 133" version="1.1" xmlns="http://www.w3.org/2000/svg" xmlns:xlink="http://www.w3.org/1999/xlink">
    <!-- Generator: Sketch 53.1 (72631) - https://sketchapp.com -->
    <title>icon#satisfaction</title>
    <desc>Created with Sketch.</desc>
    <g id="Cards" stroke="none" stroke-width="1" fill="none" fill-rule="evenodd">
        <g id="Header-#1" transform="translate(-495.000000, -3364.000000)" fill="#946129">
            <path d="M530.730689,3434.03095 L532.011383,3434.03095 L540.542367,3425.79876 C540.565919,3425.77228 550.549263,3415.12712 551.865546,3400.55658 C552.496211,3393.56664 556.518334,3389.71807 563.193959,3389.71807 C567.770858,3389.71807 573.577684,3391.54038 575.23416,3400.23608 C575.344069,3400.86118 577.442795,3413.45049 572.617294,3425.04653 L600.738137,3425.04653 C607.827227,3425.04653 612.969369,3429.89366 612.969369,3436.56841 C612.969369,3440.26071 610.776435,3443.30407 607.994707,3445.32239 C609.713988,3446.99372 611.10616,3449.2822 611.184666,3452.49774 C611.268406,3456.08409 609.496788,3459.22016 606.291127,3461.40534 C607.882181,3463.00251 609.329308,3465.30159 609.40258,3468.49063 C609.515106,3473.2795 607.306471,3476.23016 604.820448,3477.90944 C606.558047,3479.89067 607.523671,3482.17915 607.602177,3484.60537 C607.706851,3487.85004 606.63917,3490.78216 604.590164,3492.84815 C602.541158,3494.92209 599.589333,3496.06103 596.281614,3496.06103 L546.304706,3496.06103 C539.67095,3496.06103 535.601724,3493.08388 533.222992,3491.08941 L530.730689,3491.08941 L530.730689,3493.71745 C530.730689,3495.161 529.534781,3496.33173 528.056252,3496.33173 L497.674437,3496.33173 C496.198525,3496.33173 495,3495.161 495,3493.71745 L495,3429.17904 C495,3427.73285 496.198525,3426.56212 497.674437,3426.56212 L528.056252,3426.56212 C529.534781,3426.56212 530.730689,3427.73285 530.730689,3429.17904 L530.730689,3434.03095 Z M530.730689,3439.26214 L530.730689,3485.85556 L534.222635,3485.85556 C534.871618,3485.85556 535.497049,3486.08865 535.983786,3486.50449 L536.088461,3486.59455 C538.171486,3488.37978 541.02387,3490.82983 546.304706,3490.82983 L596.281614,3490.82983 C598.157907,3490.82983 599.701858,3490.26831 600.751221,3489.20882 C601.797968,3488.15199 602.318724,3486.61574 602.258536,3484.77224 C602.187881,3482.52613 600.557573,3480.8495 598.99007,3479.74499 L596.357503,3479.74499 C594.881591,3479.74499 593.6883,3478.57691 593.6883,3477.13072 C593.6883,3475.68452 594.881591,3474.51379 596.357503,3474.51379 L599.571015,3474.51379 C600.539255,3474.34163 604.168848,3473.38015 604.05894,3468.60718 C604.011836,3466.63919 602.894435,3465.0685 600.492152,3463.56933 L596.357503,3463.56933 C594.881591,3463.56933 593.6883,3462.39861 593.6883,3460.95506 C593.6883,3459.50622 594.881591,3458.33814 596.357503,3458.33814 L600.780007,3458.33814 C602.865649,3457.58061 605.916915,3455.91192 605.841026,3452.61958 C605.788688,3450.56683 604.768111,3449.11534 602.284705,3447.58703 L596.357503,3447.58703 C594.881591,3447.58703 593.6883,3446.41365 593.6883,3444.97011 C593.6883,3443.52391 594.881591,3442.35319 596.357503,3442.35319 L602.533307,3442.35319 C605.063817,3441.39435 607.623112,3439.12176 607.623112,3436.56841 C607.623112,3432.22453 604.166231,3430.28038 600.738137,3430.28038 L568.357036,3430.28038 C567.404497,3430.28038 566.52523,3429.78242 566.04896,3428.97721 C565.570074,3428.172 565.56484,3427.17609 566.035876,3426.36559 C572.366075,3415.49529 569.997811,3401.29557 569.971643,3401.15254 C568.932747,3395.70679 566.098681,3394.95191 563.193959,3394.95191 C560.359894,3394.95191 557.669755,3395.6856 557.190869,3401.01745 C555.707106,3417.43414 544.83141,3428.96927 544.368225,3429.45133 L534.984143,3438.50991 C534.484322,3438.99198 533.80917,3439.26214 533.10785,3439.26214 L530.730689,3439.26214 Z M631.875328,3364.5 C634.706349,3364.5 637,3366.79575 637,3369.62533 L637,3391.83333 C637,3394.66291 634.706349,3396.95866 631.875328,3396.95866 L613.436993,3396.95866 L605.145771,3405.24755 C604.980628,3405.41322 604.763059,3405.5 604.540247,3405.5 C604.430152,3405.5 604.320056,3405.47633 604.215204,3405.43426 C603.895403,3405.30277 603.688319,3404.98983 603.688319,3404.64534 L603.688319,3396.95866 L602.83377,3396.95866 L601.124672,3396.95866 C598.293651,3396.95866 596,3394.66291 596,3391.83333 L596,3369.62533 C596,3366.79575 598.293651,3364.5 601.124672,3364.5 L631.875328,3364.5 Z M626.493766,3381.69838 C629.112461,3379.13177 629.112461,3374.96892 626.493766,3372.40495 C623.872451,3369.83834 619.625919,3369.83834 617.004603,3372.40495 L616.477719,3372.90196 L615.950834,3372.40495 C613.2535,3369.76207 608.833962,3369.83834 606.238859,3372.63373 C603.806278,3375.2503 604.042197,3379.32637 606.595358,3381.82987 L615.486861,3390.56581 C616.050444,3391.11805 616.962662,3391.11542 617.523624,3390.56318 L626.493766,3381.69838 Z" id="icon#satisfaction"></path>
        </g>
    </g>
</svg>