<?xml version="1.0" encoding="UTF-8"?>
<svg width="149px" height="183px" viewBox="0 0 149 183" version="1.1" xmlns="http://www.w3.org/2000/svg" xmlns:xlink="http://www.w3.org/1999/xlink">
    <!-- Generator: Sketch 53.1 (72631) - https://sketchapp.com -->
    <title>icon#ridership</title>
    <desc>Created with Sketch.</desc>
    <g id="Cards" stroke="none" stroke-width="1" fill="none" fill-rule="evenodd">
        <g id="Header-#1" transform="translate(-99.000000, -1131.000000)">
            <g id="icon#ridership" transform="translate(100.000000, 1131.000000)">
                <path d="M116.041445,119.71155 C102.40729,109.621085 78.1249109,109.405324 61.8140729,119.22766 C45.4969662,129.05209 43.3238594,145.196415 56.958015,155.28688 C70.5942601,165.37944 94.8745495,165.5952 111.191656,155.77077 C127.502494,145.948434 129.675601,129.802015 116.041445,119.71155" id="Fill-1" fill="#D0D1D1"></path>
                <path d="M108.435094,39.6596561 C108.459681,37.3517793 106.953754,35.384886 104.921264,34.8858856 C100.932094,32.8067173 91.9559491,32 87.9032636,32 L82.4307039,32 C77.6895946,32 65.4618762,33.3473011 63.083126,37.3704918 C62.5483682,38.1668133 62.2246451,39.1377849 62.2246451,40.1940024 L57,87.2102359 C57,89.8736505 59.022245,92.0359856 61.5259769,92.0359856 C64.0460998,92.0359856 66.064247,89.8736505 66.064247,87.2102359 L69.4694863,56.5965614 L69.4694863,78.0743703 C69.4694863,79.6379048 69.7235475,80.8916433 70.1702034,81.9187525 L70.1702034,129.263495 C70.1702034,132.993523 72.9956095,136 76.4787063,136 C79.9679497,136 82.7831114,132.993523 82.7831114,129.263495 L82.7831114,86.3078768 L87.5467584,86.3078768 L87.5467584,129.263495 C87.5467584,132.993523 90.38036,136 93.8573101,136 C97.3465535,136 100.161715,132.993523 100.161715,129.263495 L100.161715,81.9229108 C100.61042,80.8937225 100.86653,79.6379048 100.86653,78.0743703 L100.86653,55.1078768 L103.917313,86.6135146 C103.878384,89.2977209 105.890385,91.4954018 108.40641,91.5369852 C110.8958,91.5723311 112.96312,89.4370252 113,86.7715314 L108.435094,39.6596561 Z" id="Fill-3" fill="#3B91BF"></path>
                <path d="M84.4926166,27 C91.9603875,27 98,20.9641326 98,13.509136 C98,6.07038123 91.9603875,0 84.4926166,0 C77.0311743,0 71,6.07038123 71,13.509136 C71,20.9641326 77.0311743,27 84.4926166,27" id="Fill-5" fill="#3B91BF"></path>
                <path d="M84.0395136,13 C37.6251966,13 0,50.8313602 0,97.5 C0,144.16864 37.6251966,182 84.0395136,182 C109.102337,182 131.603558,170.968966 147,153.470821" id="Stroke-7" stroke="#3B91BF" stroke-width="2"></path>
            </g>
        </g>
    </g>
</svg>