<?xml version="1.0" encoding="UTF-8"?>
<svg width="90px" height="100px" viewBox="0 0 90 100" version="1.1" xmlns="http://www.w3.org/2000/svg" xmlns:xlink="http://www.w3.org/1999/xlink">
    <!-- Generator: Sketch 53.1 (72631) - https://sketchapp.com -->
    <title>icon#delay</title>
    <desc>Created with Sketch.</desc>
    <g id="Cards" stroke="none" stroke-width="1" fill="none" fill-rule="evenodd">
        <g id="Header-#1" transform="translate(-887.000000, -3403.000000)" fill="#94612A">
            <path d="M976.983918,3463.35285 C977.122504,3449.80594 974.808381,3436.59881 970.287344,3423.77035 C968.786433,3419.50371 967.241069,3415.16704 964.022216,3411.78745 C961.6035,3409.24562 958.682737,3407.70755 955.547559,3406.70638 C953.199443,3405.85565 950.707512,3405.30838 948.176359,3404.87782 C937.962841,3403.14004 927.681338,3403.18154 917.425982,3404.25014 C911.872088,3404.82854 906.360031,3406.07352 902.139698,3410.16897 C898.790104,3413.42148 897.077391,3417.69331 895.403902,3421.90029 C890.284068,3434.78581 887.439136,3448.15635 887.130586,3461.97819 C886.903096,3465.66643 886.963237,3469.36246 887.386839,3473.04552 C887.397298,3473.14927 887.410373,3473.25302 887.420832,3473.35676 C887.609099,3474.90261 887.854893,3476.44586 888.176517,3477.98393 C889.290434,3483.30361 891.852965,3486.47571 897.33103,3486.10481 C898.69597,3486.01403 900.071369,3486.08925 902.076942,3486.09184 C902.082172,3486.09963 902.087402,3486.11 902.092631,3486.11778 L900.092288,3489.8164 C899.511796,3490.47261 899.127417,3491.41153 898.682896,3492.27523 C898.123323,3493.36199 897.55852,3494.45135 896.983258,3495.56664 L893.29635,3502.3803 L909.442913,3502.3803 L913.101057,3486.7688 C913.527274,3486.49646 914.086847,3486.40568 914.800695,3486.41606 C925.492727,3486.56909 936.182143,3486.66765 946.87156,3486.80511 C947.85735,3486.81808 948.832681,3486.69877 949.740026,3486.6054 L953.437393,3502.3803 L967.894776,3502.3803 C968.028132,3502.45811 968.14057,3502.5048 968.2164,3502.49961 C968.213785,3502.49442 968.174563,3502.44773 968.114422,3502.3803 L969.58134,3502.3803 L961.334173,3487.13192 C961.373395,3487.03595 961.415233,3486.94517 961.45184,3486.84402 C961.488448,3486.84661 961.522441,3486.84661 961.559048,3486.84921 L961.509366,3486.76621 L970.551441,3486.49387 C971.900693,3485.85063 973.056447,3484.73015 974.000399,3482.84972 C974.212201,3482.43991 974.405698,3481.99898 974.586121,3481.5373 C974.627958,3481.43096 974.669795,3481.32721 974.709018,3481.22346 C974.722092,3481.18715 974.735166,3481.15603 974.74824,3481.11972 C975.995513,3477.88537 976.474027,3474.52134 976.701517,3471.12877 C976.955155,3468.54544 977.03883,3465.94915 976.983918,3463.35285 M914.379708,3477.22138 C913.582185,3478.76463 911.934844,3479.6854 909.887433,3479.58165 C907.269991,3479.45196 905.217351,3477.27066 905.335018,3474.7418 C905.345477,3474.53171 905.37424,3474.32421 905.413463,3474.11931 C906.098548,3472.27 907.944616,3471.00168 910.203828,3471.02502 C912.758515,3471.05356 914.792851,3473.11296 914.72225,3475.6055 C914.706561,3476.17093 914.583664,3476.71561 914.379708,3477.22138 M954.946148,3480.61913 C954.530391,3480.72807 954.096329,3480.78513 953.649194,3480.77475 C951.018677,3480.72029 948.84314,3478.48192 948.871903,3475.85969 C948.879748,3475.13604 949.07063,3474.45649 949.392254,3473.85735 C950.231614,3472.47231 951.758673,3471.5282 953.492304,3471.52561 C956.049606,3471.52042 958.25652,3473.6706 958.272209,3476.1839 C958.285284,3478.24071 956.878506,3480.00961 954.946148,3480.61913 M967.871243,3456.09048 C967.748346,3458.49744 967.209691,3460.43753 966.257894,3461.9315 C965.588498,3462.90673 964.681153,3463.7445 963.449569,3464.3644 C962.333037,3464.92723 961.030853,3465.25663 959.720824,3465.42522 L935.763771,3464.78976 C934.503424,3464.74048 933.243077,3464.6912 931.982729,3464.64192 L931.980115,3464.6912 L904.500888,3463.96237 C903.135948,3463.75228 901.773622,3463.36323 900.628328,3462.72777 C898.000426,3461.27011 896.933576,3458.86056 896.570115,3456.18904 C896.546581,3455.83889 896.528278,3455.48096 896.523048,3455.11006 C896.394921,3443.8923 898.748266,3433.15178 902.984288,3422.80549 C905.680175,3416.22268 910.993506,3412.80936 917.810362,3411.57995 C924.514781,3410.37128 931.297645,3410.10154 938.085738,3410.79665 C941.550385,3411.15199 945.015032,3411.58773 948.443071,3412.18947 C951.750829,3412.76786 954.572228,3413.89094 956.912499,3415.5535 C959.459341,3417.49878 961.441381,3420.12101 962.693883,3423.56026 C966.519377,3434.06476 968.44389,3444.88828 967.871243,3456.09048" id="icon#delay"></path>
        </g>
    </g>
</svg>