<?xml version="1.0" encoding="UTF-8"?>
<svg width="152px" height="174px" viewBox="0 0 152 174" version="1.1" xmlns="http://www.w3.org/2000/svg" xmlns:xlink="http://www.w3.org/1999/xlink">
    <!-- Generator: Sketch 53.1 (72631) - https://sketchapp.com -->
    <title>icon#tax</title>
    <desc>Created with Sketch.</desc>
    <g id="Cards" stroke="none" stroke-width="1" fill="none" fill-rule="evenodd">
        <g id="Header-#1" transform="translate(-804.000000, -2700.000000)">
            <g id="icon#tax" transform="translate(805.000000, 2701.000000)">
                <path d="M86.7818624,0 C38.8529692,0 0,38.5029228 0,86 C0,133.497077 38.8529692,172 86.7818624,172 C111.703352,172 134.173618,161.588495 150,144.916147" id="Stroke-1" stroke="#E1A300" stroke-width="2"></path>
                <path d="M69.1899193,74.3958191 C71.6344805,70.7524623 74.616677,67.5750922 78,64.9296894 C76.1119756,64.9956699 74.1798482,65.030722 72.2120185,65.030722 C55.4970168,65.030722 41.2895804,62.6038793 36.1022386,59.2244442 C35.21388,58.6471155 34,59.2512488 34,60.2656979 L34,69.4411012 C34,73.8143665 48.3796477,77.4288569 67.0351773,78 C67.045678,77.9793811 67.0561787,77.9608241 67.0645793,77.9402052 C67.7030213,76.7401862 68.4170684,75.5463528 69.1899193,74.3958191" id="Fill-3" fill="#E1A300"></path>
                <path d="M62.4309231,91.9500366 C62.6809752,89.2010057 63.2081684,86.512416 64,83.9030251 C50.9576995,83.2652666 40.3909148,81.0831322 36.0858512,78.2278083 C35.2044176,77.6421543 34,78.2549026 34,79.278234 L34,88.5549105 C34,92.610721 46.0108356,96.0204363 62.2871432,97 C62.2725568,96.5456492 62.2600542,96.0933825 62.2600542,95.6390317 C62.2600542,94.4302085 62.3183997,93.1901225 62.4309231,91.9500366" id="Fill-5" fill="#E1A300"></path>
                <path d="M66.7310571,112.316354 C66.4725215,111.707254 66.2249407,111.083749 65.9992697,110.464359 C65.8853387,110.151578 65.7757897,109.838796 65.6684316,109.521899 C65.3507395,108.575324 65.068103,107.606113 64.8270951,106.63896 C64.7569838,106.357045 64.6956363,106.068957 64.6320979,105.784984 C51.3372284,105.101804 40.616761,102.982298 36.1931714,100.224883 C35.2663867,99.6466484 34,100.251634 34,101.264058 L34,110.421146 C34,114.894744 49.7619135,118.571983 69.9342706,119 C69.9517984,118.804512 69.9802812,118.613139 70,118.419708 C69.6428702,117.872341 69.2945043,117.310569 68.9636662,116.748797 C68.1267117,115.318645 67.3752054,113.828817 66.7310571,112.316354" id="Fill-7" fill="#E1A300"></path>
                <path d="M139.253491,79.9588237 C139.119764,79.688401 138.98388,79.4222369 138.843683,79.1560729 C138.563288,78.6237447 138.272108,78.0999338 137.96583,77.5825109 C137.355432,76.5497943 136.695425,75.5490174 135.990124,74.5801801 C135.813259,74.3395678 135.634238,74.0989555 135.450902,73.8626018 C134.540697,72.6744454 133.557157,71.5437804 132.506754,70.4727362 C131.879101,69.8296838 131.225565,69.2079245 130.55046,68.611717 C129.875355,68.0155095 129.178681,67.4405951 128.460438,66.8912324 C127.983767,66.5249906 127.494154,66.1693954 126.99807,65.8265761 C126.750028,65.6541018 126.49983,65.4858861 126.247474,65.3197997 C125.488251,64.8194113 124.711772,64.3467039 123.915881,63.9016776 C123.385288,63.6057031 122.846067,63.3203752 122.300375,63.0478232 C121.480758,62.6389952 120.643887,62.2578482 119.791917,61.9065117 C115.245204,60.0348459 110.247701,59 105,59 C104.96549,59 104.928823,59.0021293 104.892156,59.0021293 C91.5755477,59.0383276 79.8722897,65.7435329 73.114769,75.8684142 C72.4159382,76.916036 71.7688727,77.9998561 71.1778863,79.1177452 C69.0037462,83.2379651 67.6039278,87.8095992 67.1574526,92.6495267 C67.056079,93.7525106 67,94.8703997 67,95.9989353 C67,97.9153167 67.150982,99.797629 67.4378477,101.635226 C67.582359,102.552959 67.7613804,103.460047 67.974912,104.356487 C68.1862868,105.250798 68.4321716,106.134463 68.7082529,107.003223 C68.800999,107.292809 68.8980588,107.580266 68.9972755,107.867724 C69.1957089,108.440509 69.4092405,109.006906 69.6357135,109.566915 C70.2029742,110.968003 70.8565104,112.326504 71.5876944,113.636031 C71.8788739,114.159842 72.1851515,114.677265 72.5022136,115.186171 C72.6618231,115.439559 72.8235895,115.692947 72.9875128,115.942077 C73.3175162,116.442465 73.658304,116.934337 74.0120331,117.417691 C74.1888977,117.660432 74.3679192,117.901045 74.5490975,118.137398 C75.4614599,119.325555 76.4449994,120.45622 77.4932455,121.527264 C78.7528664,122.813369 80.1052333,124.010042 81.5395618,125.108768 C82.2578045,125.65813 82.9954592,126.181941 83.7546827,126.6802 C84.2593938,127.012373 84.7748893,127.333899 85.2968555,127.64265 C85.8188217,127.9514 86.3494154,128.249504 86.8886366,128.534832 C87.6953116,128.960694 88.5213986,129.361005 89.3625837,129.731505 C94.1314565,131.831007 99.4266091,133 105,133 C110.247701,133 115.245204,131.965154 119.791917,130.091359 C120.208196,129.921014 120.620161,129.740022 121.029969,129.554772 C121.735271,129.233246 122.431945,128.894685 123.11352,128.534832 C123.551368,128.302736 123.984902,128.059995 124.411965,127.812995 C125.035305,127.451011 125.64786,127.074123 126.247474,126.6802 C127.004541,126.181941 127.744352,125.65813 128.460438,125.108768 C129.178681,124.559405 129.875355,123.984491 130.55046,123.388283 C131.225565,122.789946 131.879101,122.170316 132.506754,121.527264 C133.557157,120.45622 134.540697,119.325555 135.450902,118.137398 C135.634238,117.901045 135.813259,117.660432 135.990124,117.417691 C136.630719,116.540414 137.230333,115.633327 137.79328,114.702817 C137.905438,114.515438 138.017596,114.325929 138.127597,114.13642 C138.373482,113.710557 138.612896,113.280436 138.843683,112.843927 C138.98388,112.577763 139.119764,112.30947 139.253491,112.041176 C141.654104,107.188473 143,101.748079 143,95.9989353 C143,90.2519207 141.654104,84.8115271 139.253491,79.9588237 M117.145419,105.812937 C117.050517,106.070584 116.942672,106.323972 116.821887,106.570972 C116.731298,106.756222 116.634238,106.939343 116.530707,107.118206 C116.42502,107.299197 116.315019,107.47593 116.19639,107.650534 C116.118742,107.765517 116.036781,107.8805 115.952662,107.993353 C115.782268,108.21906 115.60109,108.438379 115.409127,108.651311 C115.266773,108.813138 115.115791,108.968578 114.958338,109.121889 C114.803042,109.275199 114.639119,109.424251 114.470882,109.571174 C114.358724,109.666993 114.244409,109.762812 114.12578,109.856502 C113.89068,110.043881 113.644795,110.222743 113.388126,110.395218 C113.133613,110.567692 112.86616,110.733778 112.590078,110.891348 C111.971052,111.244813 111.300261,111.557822 110.586332,111.826116 C109.87456,112.096538 109.115337,112.320116 108.317289,112.49472 C108.254739,112.507496 108.196504,112.52666 108.144738,112.547953 C108.090816,112.569246 108.043365,112.592668 108.000227,112.620349 C107.92905,112.665065 107.875128,112.714039 107.836304,112.763013 C107.79748,112.814117 107.778068,112.863091 107.778068,112.907807 L107.778068,115.356516 C107.778068,115.639715 107.72846,115.910137 107.63787,116.167784 C107.577478,116.338129 107.497673,116.499957 107.40277,116.655397 C107.353162,116.732052 107.301396,116.808707 107.245317,116.881104 C106.740606,117.532673 105.923147,117.984088 104.982745,118.06926 C104.877058,118.077777 104.77137,118.084165 104.663526,118.084165 L104.600976,118.084165 C104.387445,118.084165 104.178227,118.065002 103.97548,118.026674 C103.772732,117.990476 103.576456,117.937243 103.390964,117.869105 C103.298218,117.835036 103.207629,117.796708 103.119196,117.754122 C102.411738,117.417691 101.87036,116.849164 101.628789,116.167784 C101.536043,115.910137 101.488591,115.639715 101.488591,115.356516 L101.488591,113.26979 C101.488591,113.248497 101.484277,113.225074 101.47565,113.201652 C101.449767,113.133514 101.387218,113.061117 101.296628,113.001496 C101.175843,112.918453 101.005449,112.854574 100.804859,112.837539 C100.502895,112.809858 100.203088,112.780048 99.9032807,112.74172 C99.6034737,112.705522 99.3058236,112.665065 99.0103303,112.61822 C98.7148371,112.571375 98.4215007,112.520272 98.1324781,112.46491 C97.0432512,112.256237 95.9993189,111.983685 95.0416619,111.655771 C94.722443,111.547176 94.4140084,111.432193 94.1163583,111.310822 C93.840277,111.197969 93.5900783,111.053175 93.3679192,110.878572 C93.2945851,110.82108 93.2234079,110.75933 93.1565444,110.695451 C92.9559541,110.503813 92.7877171,110.284493 92.6561471,110.04601 C92.6130094,109.965097 92.5720286,109.884183 92.5375184,109.79901 C92.5051652,109.722355 92.4771257,109.641441 92.451243,109.562656 C92.3800658,109.324173 92.3433988,109.077173 92.3455557,108.832302 C92.3477126,108.749259 92.3520263,108.668345 92.3606539,108.587431 C92.3714383,108.504388 92.3843796,108.423474 92.4016347,108.34256 C92.4361449,108.180733 92.4879101,108.021034 92.5569304,107.865594 L92.7467363,107.433344 C92.7467363,107.433344 92.7467363,107.433344 92.7467363,107.433344 C92.7985015,107.314102 92.8632081,107.201249 92.9343853,107.090525 C92.8632081,107.201249 92.7985015,107.314102 92.7467363,107.433344 C92.7985015,107.314102 92.8632081,107.201249 92.9343853,107.090525 C92.9516404,107.062843 92.9688954,107.035162 92.9861505,107.009611 C93.0594846,106.905274 93.1371325,106.803067 93.2234079,106.709378 C93.2234079,106.707248 93.2255648,106.707248 93.2277216,106.705119 C93.313997,106.6093 93.4110569,106.524127 93.5124305,106.441084 C93.5383131,106.419791 93.5620388,106.398498 93.5879214,106.379334 C93.689295,106.302679 93.7928255,106.228153 93.9049835,106.164274 C93.9071404,106.162144 93.9114542,106.160015 93.9136111,106.157886 C94.027926,106.091877 94.1487115,106.034386 94.2694971,105.981153 C94.3018504,105.968377 94.3320468,105.955601 94.3622432,105.942825 C94.4830287,105.89598 94.6038143,105.853394 94.7289136,105.819325 C94.7353843,105.817196 94.739698,105.815066 94.7461687,105.812937 C94.8777387,105.778868 95.0114655,105.753316 95.1451924,105.734152 C95.1797026,105.729894 95.2142127,105.725635 95.2487229,105.721377 C95.378136,105.706471 95.5075491,105.695825 95.6391191,105.695825 C95.6477466,105.695825 95.6563742,105.693696 95.6650017,105.693696 C95.7210807,105.693696 95.7771597,105.700083 95.8332387,105.702213 C95.8828471,105.704342 95.9302986,105.704342 95.9799069,105.708601 C96.0381428,105.714989 96.0963787,105.723506 96.1546146,105.732023 C96.2020661,105.738411 96.2495175,105.74267 96.2948121,105.751187 C96.3595187,105.763963 96.4242252,105.780997 96.4889318,105.795903 C96.5299126,105.806549 96.5687365,105.812937 96.6097173,105.823584 C96.7003065,105.849135 96.7887388,105.881075 96.8771711,105.913015 C96.8901124,105.919403 96.9052106,105.921532 96.9181519,105.92792 C97.6514928,106.211118 98.604836,106.521998 99.7328868,106.76261 C100.015439,106.822231 100.308775,106.879723 100.612896,106.928697 C101.523101,107.077749 102.526053,107.173568 103.602339,107.173568 C105.619026,107.173568 107.301396,106.698731 108.414349,105.89811 C108.573958,105.783127 108.720627,105.663885 108.854354,105.536126 C109.01612,105.382816 109.160631,105.220988 109.285731,105.050643 C109.41083,104.880298 109.516517,104.703565 109.602793,104.518315 C109.686911,104.330935 109.753775,104.139297 109.796912,103.939142 C109.842207,103.738987 109.863776,103.532443 109.863776,103.319512 C109.863776,103.274796 109.863776,103.227952 109.861619,103.183236 C109.859462,103.091676 109.852991,103.000115 109.842207,102.906425 C109.824952,102.76802 109.799069,102.625356 109.758088,102.480563 C109.732206,102.384744 109.699852,102.286795 109.661028,102.188847 C109.622205,102.090899 109.57691,101.99295 109.522988,101.892873 C109.497105,101.841769 109.466909,101.792795 109.436712,101.741691 C109.374163,101.641614 109.305142,101.539407 109.225338,101.4372 C109.145533,101.334993 109.057101,101.232786 108.957884,101.128449 C108.858667,101.024113 108.750823,100.919777 108.630037,100.813311 C108.509252,100.708975 108.377682,100.602509 108.233171,100.496044 C108.088659,100.387449 107.933364,100.280983 107.76297,100.172388 C107.508457,100.01056 107.223748,99.8466032 106.906686,99.6805168 C106.800999,99.6251547 106.690998,99.5697925 106.57884,99.5144304 C106.464525,99.4590683 106.348053,99.4037062 106.227268,99.348344 C106.106482,99.2929819 105.981383,99.2376198 105.85197,99.1822576 C105.722556,99.1247662 105.590986,99.0694041 105.452946,99.014042 C105.179021,98.9011884 104.887842,98.7883348 104.579407,98.6754813 C104.424112,98.6179898 104.264502,98.5604984 104.102736,98.5051362 C103.938813,98.4476448 103.770576,98.3901534 103.598025,98.3326619 C102.978999,98.1346359 102.364287,97.9302219 101.760359,97.713032 C101.156431,97.4979714 100.565444,97.2722643 99.9895561,97.0316519 C99.297196,96.7441947 98.6328755,96.4375737 98.0009082,96.105401 C97.6946305,95.9457025 97.3969804,95.7774868 97.1101147,95.6050125 C96.8210921,95.4325382 96.5428539,95.2536759 96.2732433,95.0662964 C96.0057895,94.8810462 95.7491202,94.6872788 95.5032353,94.4849941 C95.2573504,94.2848387 95.0244069,94.0761661 94.8022477,93.8589762 C94.5822454,93.6417863 94.3751845,93.4182085 94.1810648,93.1839841 C93.9891021,92.9497597 93.8100806,92.7070181 93.6461573,92.4557592 C93.2190941,91.7956723 92.8998751,91.0738354 92.7035986,90.2753431 C92.5979112,89.8430927 92.5288909,89.3895491 92.5008514,88.9104538 C92.4922239,88.7528846 92.4857532,88.5889276 92.4857532,88.4249705 C92.4857532,87.6009265 92.6065388,86.8109516 92.8373255,86.0593042 C93.14576,85.0606566 93.6504711,84.1322764 94.3342037,83.2997151 C95.8677489,81.4259201 98.2985583,80.029091 101.387218,79.3519696 C101.428198,79.3413231 101.469179,79.3306765 101.505846,79.3179006 C101.618004,79.279573 101.71075,79.2284695 101.781928,79.170978 C101.803496,79.1518142 101.825065,79.1326504 101.84232,79.1113573 C101.878987,79.0730297 101.902713,79.0325727 101.915654,78.9942451 C101.922125,78.9750813 101.926439,78.9559175 101.926439,78.938883 L101.926439,76.643484 C101.926439,76.3602854 101.97389,76.0877334 102.066636,75.8322159 C102.096833,75.7470434 102.131343,75.6640002 102.170167,75.5830864 C102.208991,75.5000432 102.254285,75.4212586 102.301737,75.3446033 C102.364287,75.2445257 102.433307,75.1465773 102.508798,75.0550168 C103.039392,74.4098351 103.887047,73.9775847 104.846861,73.9243519 C104.911568,73.9222225 104.974117,73.9158346 105.038824,73.9158346 C106.21864,73.9158346 107.249631,74.4950076 107.775911,75.3446033 C107.872971,75.4979138 107.952776,75.6618709 108.013168,75.8322159 C108.103758,76.0877334 108.153366,76.3602854 108.153366,76.643484 L108.153366,78.5407015 C108.153366,78.6067102 108.190033,78.6791068 108.256896,78.7451155 C108.310818,78.7983483 108.386309,78.8494518 108.479056,78.8899088 C108.569645,78.9303657 108.675332,78.9580468 108.793961,78.9686934 C109.699852,79.0538659 110.577705,79.1837539 111.41889,79.3604869 C112.260075,79.5393491 113.06675,79.7607976 113.832444,80.029091 C114.233625,80.1696256 114.595981,80.3825569 114.893632,80.6465917 C115.044613,80.7807384 115.17834,80.9276609 115.294812,81.0852301 C115.350891,81.1618853 115.404813,81.2449285 115.454422,81.3279717 C115.501873,81.4110149 115.547168,81.4983167 115.583835,81.5877478 C115.726189,81.9114033 115.795209,82.2520933 115.790896,82.5927834 C115.786582,82.9334734 115.708934,83.2720341 115.557952,83.5935603 L115.374617,83.9917417 C115.320695,84.1088539 115.253831,84.2174489 115.184811,84.3239145 C115.167556,84.3494662 115.150301,84.375018 115.133046,84.4005697 C115.059712,84.5027767 114.979907,84.6028544 114.893632,84.6944149 C114.887161,84.7008028 114.882847,84.7050614 114.876376,84.7114494 C114.792258,84.7987512 114.701669,84.8775358 114.606766,84.954191 C114.58304,84.9733548 114.559314,84.9925186 114.535589,85.0116824 C114.434215,85.0883377 114.328528,85.1607343 114.21637,85.2246137 C114.203428,85.2310016 114.190487,85.2373896 114.179703,85.2437775 C114.076172,85.301269 113.968328,85.3523725 113.858327,85.3992173 C113.830287,85.4119932 113.802248,85.4247691 113.772051,85.4354156 C113.651266,85.4843898 113.526166,85.5248468 113.39891,85.5589158 C113.381655,85.5653037 113.362243,85.567433 113.342831,85.5716917 C113.228516,85.601502 113.112044,85.6227952 112.993416,85.6398297 C112.963219,85.6440883 112.933023,85.6504762 112.902827,85.6526055 C112.7691,85.66964 112.635373,85.6781573 112.499489,85.6802866 C112.445567,85.6802866 112.391645,85.6781573 112.337723,85.6738987 C112.294585,85.6738987 112.251447,85.6738987 112.20831,85.66964 C112.147917,85.6653814 112.089681,85.6568642 112.029288,85.6483469 C111.988307,85.6440883 111.949483,85.6398297 111.908503,85.6334417 C111.841639,85.6227952 111.776933,85.60789 111.710069,85.5929848 C111.677716,85.5865968 111.643206,85.5802089 111.608696,85.5716917 C111.509479,85.5482692 111.412419,85.5184588 111.313202,85.4843898 C110.879669,85.3332086 110.43535,85.199062 109.982404,85.0862084 C108.62141,84.7433891 107.17414,84.5709147 105.664321,84.5709147 C105.493927,84.5709147 105.33216,84.5751734 105.172551,84.5836906 C105.012941,84.5900786 104.859802,84.6007251 104.706664,84.6113717 C101.417414,84.8690185 100.213872,86.4447098 100.213872,87.8138578 C100.213872,87.8819958 100.218186,87.9501338 100.2225,88.0161425 C100.29152,89.0020142 100.888977,89.7834719 102.370757,90.601128 C102.536837,90.6926884 102.713702,90.7842488 102.903508,90.8779386 C103.188217,91.0184732 103.498808,91.1590079 103.837439,91.3038011 C104.17607,91.4485944 104.54274,91.5955169 104.93745,91.7466981 C105.202747,91.8489051 105.478828,91.9511121 105.770008,92.0575778 C106.207856,92.2151469 106.6759,92.3769746 107.17414,92.5451903 C107.497673,92.6537853 107.823362,92.7645095 108.146895,92.8794924 C108.470428,92.9944753 108.791804,93.1137168 109.11318,93.2372169 C109.272789,93.3010963 109.432399,93.3628464 109.592008,93.4267258 C110.06868,93.6204932 110.538881,93.8249072 110.998297,94.0420971 C111.151436,94.1144937 111.302418,94.1890197 111.4534,94.2635456 C111.755364,94.4147268 112.050857,94.5722959 112.33988,94.7383823 C112.484391,94.8192962 112.626745,94.9044687 112.766943,94.9896412 C113.049495,95.1599862 113.323419,95.3388484 113.588716,95.526228 C114.483823,96.1565045 115.279714,96.8762121 115.924623,97.7109027 C117.000908,99.1034731 117.654444,100.81544 117.654444,102.961787 C117.654444,103.956176 117.479737,104.914367 117.145419,105.812937" id="Fill-9" fill="#E1A300"></path>
                <path d="M72.5,57 C93.762173,57 111,53.1938179 111,48.5010144 C111,43.8061821 93.762173,40 72.5,40 C51.237827,40 34,43.8061821 34,48.5010144 C34,53.1938179 51.237827,57 72.5,57" id="Fill-11" fill="#E1A300"></path>
            </g>
        </g>
    </g>
</svg>